<svg width="0" height="0" class="hidden">
<symbol fill="none" xmlns="http://www.w3.org/2000/svg" viewBox="0 0 61 39" id="mastercard">
    <g clip-path="url(#clip0_4067_409)">
      <rect width="60.9375" height="39" rx="3" fill="#0F3560"></rect>
      <path d="M35.5648 29.12H24.8623V9.88574H35.5648V29.12Z" fill="#FF5F00"></path>
      <path d="M25.5483 19.5013C25.5483 15.5995 27.3752 12.124 30.22 9.88416C28.1397 8.2463 25.5141 7.26873 22.6607 7.26873C15.9055 7.26873 10.4297 12.7454 10.4297 19.5013C10.4297 26.2573 15.9055 31.7339 22.6607 31.7339C25.5141 31.7339 28.1397 30.7563 30.22 29.1185C27.3752 26.8787 25.5483 23.4031 25.5483 19.5013Z" fill="#EB001B"></path>
      <path d="M50.0001 19.5013C50.0001 26.2573 44.5243 31.7339 37.7691 31.7339C34.9157 31.7339 32.2901 30.7563 30.209 29.1185C33.0546 26.8787 34.8815 23.4031 34.8815 19.5013C34.8815 15.5995 33.0546 12.124 30.209 9.88416C32.2901 8.2463 34.9157 7.26873 37.7691 7.26873C44.5243 7.26873 50.0001 12.7454 50.0001 19.5013Z" fill="#F79E1B"></path>
      <path d="M19.6333 19.5789C19.6333 19.0446 19.9834 18.6056 20.5556 18.6056C21.1023 18.6056 21.4713 19.0257 21.4713 19.5789C21.4713 20.1321 21.1023 20.5522 20.5556 20.5522C19.9834 20.5522 19.6333 20.1132 19.6333 19.5789ZM22.0945 19.5789V18.0589H21.4335V18.428C21.2238 18.1543 20.9057 17.9825 20.4733 17.9825C19.6209 17.9825 18.9526 18.6508 18.9526 19.5789C18.9526 20.5078 19.6209 21.1753 20.4733 21.1753C20.9057 21.1753 21.2238 21.0035 21.4335 20.7298V21.0989H22.0945V19.5789ZM44.4309 19.5789C44.4309 19.0446 44.7811 18.6056 45.3532 18.6056C45.9006 18.6056 46.269 19.0257 46.269 19.5789C46.269 20.1321 45.9006 20.5522 45.3532 20.5522C44.7811 20.5522 44.4309 20.1132 44.4309 19.5789ZM46.8928 19.5789V16.8382H46.2311V18.428C46.0215 18.1543 45.7034 17.9825 45.271 17.9825C44.4185 17.9825 43.7503 18.6508 43.7503 19.5789C43.7503 20.5078 44.4185 21.1753 45.271 21.1753C45.7034 21.1753 46.0215 21.0035 46.2311 20.7298V21.0989H46.8928V19.5789ZM30.2992 18.5743C30.7251 18.5743 30.9988 18.8415 31.0686 19.3117H29.4912C29.5618 18.8728 29.8282 18.5743 30.2992 18.5743ZM30.3123 17.9825C29.4213 17.9825 28.7982 18.6311 28.7982 19.5789C28.7982 20.5456 29.4468 21.1753 30.3567 21.1753C30.8146 21.1753 31.2339 21.061 31.603 20.7494L31.279 20.2595C31.0242 20.4626 30.6996 20.5776 30.3946 20.5776C29.9687 20.5776 29.5807 20.3804 29.4854 19.833H31.7427C31.7493 19.7507 31.7558 19.6677 31.7558 19.5789C31.7493 18.6311 31.164 17.9825 30.3123 17.9825ZM38.2936 19.5789C38.2936 19.0446 38.6437 18.6056 39.2159 18.6056C39.7626 18.6056 40.1316 19.0257 40.1316 19.5789C40.1316 20.1321 39.7626 20.5522 39.2159 20.5522C38.6437 20.5522 38.2936 20.1132 38.2936 19.5789ZM40.7548 19.5789V18.0589H40.0938V18.428C39.8834 18.1543 39.566 17.9825 39.1336 17.9825C38.2812 17.9825 37.6129 18.6508 37.6129 19.5789C37.6129 20.5078 38.2812 21.1753 39.1336 21.1753C39.566 21.1753 39.8834 21.0035 40.0938 20.7298V21.0989H40.7548V19.5789ZM34.5606 19.5789C34.5606 20.5012 35.2027 21.1753 36.1825 21.1753C36.6404 21.1753 36.9454 21.0734 37.2759 20.8128L36.9585 20.2785C36.7103 20.4568 36.4497 20.5522 36.1628 20.5522C35.6351 20.5456 35.2471 20.1642 35.2471 19.5789C35.2471 18.9936 35.6351 18.6122 36.1628 18.6056C36.4497 18.6056 36.7103 18.701 36.9585 18.8793L37.2759 18.345C36.9454 18.0844 36.6404 17.9825 36.1825 17.9825C35.2027 17.9825 34.5606 18.6566 34.5606 19.5789ZM43.0827 17.9825C42.7013 17.9825 42.4531 18.1608 42.2813 18.428V18.0589H41.6261V21.0989H42.2878V19.3947C42.2878 18.8917 42.504 18.6122 42.9364 18.6122C43.0704 18.6122 43.2101 18.6311 43.3499 18.6886L43.5537 18.0655C43.4074 18.008 43.2167 17.9825 43.0827 17.9825ZM25.3637 18.3006C25.0456 18.091 24.6074 17.9825 24.124 17.9825C23.3538 17.9825 22.8581 18.3516 22.8581 18.9558C22.8581 19.4515 23.2272 19.7572 23.9071 19.8526L24.2194 19.897C24.5819 19.948 24.7529 20.0433 24.7529 20.2151C24.7529 20.4503 24.5113 20.5842 24.0599 20.5842C23.6021 20.5842 23.2716 20.4379 23.0488 20.2661L22.7373 20.7807C23.0998 21.0479 23.5577 21.1753 24.0534 21.1753C24.9313 21.1753 25.4401 20.7618 25.4401 20.1831C25.4401 19.6488 25.0398 19.3692 24.3781 19.2739L24.0665 19.2288C23.7804 19.1909 23.5511 19.1341 23.5511 18.9303C23.5511 18.7075 23.7673 18.5743 24.1298 18.5743C24.5178 18.5743 24.8934 18.7206 25.0776 18.8349L25.3637 18.3006ZM33.8924 17.9825C33.5109 17.9825 33.2627 18.1608 33.0916 18.428V18.0589H32.4365V21.0989H33.0974V19.3947C33.0974 18.8917 33.3136 18.6122 33.7461 18.6122C33.88 18.6122 34.0198 18.6311 34.1595 18.6886L34.3634 18.0655C34.217 18.008 34.0263 17.9825 33.8924 17.9825ZM28.2515 18.0589H27.1705V17.1366H26.5022V18.0589H25.8856V18.6631H26.5022V20.0499C26.5022 20.7553 26.7759 21.1753 27.5577 21.1753C27.8446 21.1753 28.175 21.0865 28.3847 20.9402L28.194 20.3738C27.9967 20.4881 27.7805 20.5456 27.6087 20.5456C27.2782 20.5456 27.1705 20.3418 27.1705 20.0368V18.6631H28.2515V18.0589ZM18.3681 21.0989V19.1909C18.3681 18.4724 17.9102 17.9891 17.1721 17.9825C16.7841 17.9759 16.3837 18.0968 16.1034 18.5234C15.8938 18.1863 15.5633 17.9825 15.0989 17.9825C14.7742 17.9825 14.4568 18.0779 14.2086 18.4338V18.0589H13.5469V21.0989H14.2144V19.4137C14.2144 18.8859 14.507 18.6056 14.9591 18.6056C15.3981 18.6056 15.6201 18.8917 15.6201 19.4071V21.0989H16.2883V19.4137C16.2883 18.8859 16.5933 18.6056 17.0323 18.6056C17.4836 18.6056 17.6998 18.8917 17.6998 19.4071V21.0989H18.3681Z" fill="white"></path>
    </g>
    <defs>
      <clipPath id="clip0_4067_409">
        <rect width="61" height="39" fill="white"></rect>
      </clipPath>
    </defs>
  </symbol>
  <symbol fill="none" xmlns="http://www.w3.org/2000/svg" viewBox="0 0 61 39" id="visa">
    <g clip-path="url(#clip0_4067_400)">
      <rect width="60.9375" height="39" rx="3" fill="#00579F"></rect>
      <path d="M27.3815 26.6927H23.6299L25.9764 13.2432H29.7279L27.3815 26.6927Z" fill="white"></path>
      <path d="M40.9814 13.5726C40.2414 13.3005 39.0678 13 37.6165 13C33.9116 13 31.3027 14.8313 31.2867 17.4496C31.2559 19.3813 33.1546 20.4542 34.5747 21.0983C36.0261 21.7565 36.5195 22.1861 36.5195 22.7728C36.5048 23.6738 35.3467 24.0891 34.2666 24.0891C32.7687 24.0891 31.9662 23.875 30.7465 23.3737L30.2525 23.1588L29.7275 26.178C30.6074 26.5495 32.2286 26.8793 33.9116 26.8937C37.8481 26.8937 40.4109 25.0908 40.4413 22.3006C40.4562 20.7695 39.4536 19.5964 37.2922 18.6378C35.98 18.0224 35.1764 17.6074 35.1764 16.9778C35.1918 16.4054 35.8561 15.8191 37.3373 15.8191C38.5569 15.7903 39.453 16.0621 40.1319 16.334L40.4712 16.4769L40.9814 13.5726Z" fill="white"></path>
      <path d="M45.9675 21.928C46.2764 21.1553 47.4653 18.1649 47.4653 18.1649C47.4497 18.1936 47.7737 17.378 47.9589 16.8773L48.2211 18.0362C48.2211 18.0362 48.9315 21.2556 49.0858 21.928C48.4995 21.928 46.7085 21.928 45.9675 21.928ZM50.5984 13.2432H47.6965C46.8016 13.2432 46.1218 13.4862 45.7357 14.3591L40.1631 26.6925H44.0996C44.0996 26.6925 44.7476 25.0325 44.8869 24.675C45.3188 24.675 49.1482 24.675 49.7037 24.675C49.8114 25.1472 50.1514 26.6925 50.1514 26.6925H53.625L50.5984 13.2432Z" fill="white"></path>
      <path d="M20.4959 13.2432L16.8218 22.4144L16.4203 20.5544C15.741 18.4082 13.6107 16.0763 11.2334 14.9168L14.5987 26.6784H18.566L24.4629 13.2432H20.4959Z" fill="white"></path>
      <path d="M13.4103 13.2432H7.37425L7.3125 13.5149C12.021 14.631 15.1393 17.3213 16.4205 20.555L15.1083 14.3737C14.8923 13.5147 14.2284 13.2715 13.4103 13.2432Z" fill="#FAA61A"></path>
    </g>
    <defs>
      <clipPath id="clip0_4067_400">
        <rect width="61" height="39" fill="white"></rect>
      </clipPath>
    </defs>
  </symbol>
  <symbol fill="none" xmlns="http://www.w3.org/2000/svg" viewBox="0 0 23 13" id="confirm">
    <path d="M1.5 6.5L6.75 11.5L9.375 8.5" stroke="white" stroke-width="2" stroke-linecap="round" stroke-linejoin="round"></path>
    <path d="M7.5 6.5L12.75 11.5L21.5 1.5" stroke="white" stroke-width="2" stroke-linecap="round" stroke-linejoin="round"></path>
    <path d="M15.5 1.5L12 5.5" stroke="white" stroke-width="2" stroke-linecap="round" stroke-linejoin="round"></path>
  </symbol>
  <symbol fill="none" xmlns="http://www.w3.org/2000/svg" viewBox="0 0 19 19" id="delete">
    <path d="M12.625 3.25H17.3125C17.5197 3.25 17.7184 3.33231 17.8649 3.47882C18.0114 3.62534 18.0938 3.82405 18.0938 4.03125C18.0938 4.23845 18.0114 4.43716 17.8649 4.58368C17.7184 4.73019 17.5197 4.8125 17.3125 4.8125H16.4484L15.2734 15.4C15.1673 16.3555 14.7125 17.2384 13.9961 17.8795C13.2797 18.5207 12.352 18.8751 11.3906 18.875H7.60938C6.64797 18.8751 5.72029 18.5207 5.00389 17.8795C4.28749 17.2384 3.8327 16.3555 3.72656 15.4L2.55 4.8125H1.6875C1.4803 4.8125 1.28159 4.73019 1.13507 4.58368C0.98856 4.43716 0.90625 4.23845 0.90625 4.03125C0.90625 3.82405 0.98856 3.62534 1.13507 3.47882C1.28159 3.33231 1.4803 3.25 1.6875 3.25H6.375C6.375 2.4212 6.70424 1.62634 7.29029 1.04029C7.87634 0.45424 8.6712 0.125 9.5 0.125C10.3288 0.125 11.1237 0.45424 11.7097 1.04029C12.2958 1.62634 12.625 2.4212 12.625 3.25ZM9.5 1.6875C9.0856 1.6875 8.68817 1.85212 8.39515 2.14515C8.10212 2.43817 7.9375 2.8356 7.9375 3.25H11.0625C11.0625 2.8356 10.8979 2.43817 10.6049 2.14515C10.3118 1.85212 9.9144 1.6875 9.5 1.6875ZM7.15625 7.9375V14.1875C7.15625 14.3947 7.23856 14.5934 7.38507 14.7399C7.53159 14.8864 7.7303 14.9688 7.9375 14.9688C8.1447 14.9688 8.34341 14.8864 8.48993 14.7399C8.63644 14.5934 8.71875 14.3947 8.71875 14.1875V7.9375C8.71875 7.7303 8.63644 7.53159 8.48993 7.38507C8.34341 7.23856 8.1447 7.15625 7.9375 7.15625C7.7303 7.15625 7.53159 7.23856 7.38507 7.38507C7.23856 7.53159 7.15625 7.7303 7.15625 7.9375ZM11.0625 7.15625C10.8553 7.15625 10.6566 7.23856 10.5101 7.38507C10.3636 7.53159 10.2812 7.7303 10.2812 7.9375V14.1875C10.2812 14.3947 10.3636 14.5934 10.5101 14.7399C10.6566 14.8864 10.8553 14.9688 11.0625 14.9688C11.2697 14.9688 11.4684 14.8864 11.6149 14.7399C11.7614 14.5934 11.8438 14.3947 11.8438 14.1875V7.9375C11.8438 7.7303 11.7614 7.53159 11.6149 7.38507C11.4684 7.23856 11.2697 7.15625 11.0625 7.15625Z" fill="white"></path>
  </symbol>
  <symbol fill="none" xmlns="http://www.w3.org/2000/svg" viewBox="0 0 20 21" id="share">
    <path d="M4.00004 13.5C4.87469 13.4974 5.71626 13.1653 6.35704 12.57L12.617 16.147C12.4073 16.9666 12.4998 17.8343 12.8775 18.5913C13.2552 19.3483 13.893 19.9439 14.674 20.2692C15.455 20.5944 16.327 20.6274 17.1304 20.3623C17.9338 20.0971 18.6148 19.5515 19.0488 18.8252C19.4827 18.099 19.6406 17.2408 19.4935 16.4076C19.3464 15.5745 18.9042 14.8222 18.2478 14.2885C17.5914 13.7548 16.7647 13.4753 15.919 13.5013C15.0734 13.5273 14.2655 13.857 13.643 14.43L7.38304 10.853C7.44904 10.603 7.48504 10.344 7.49104 10.085L13.641 6.56996C14.2332 7.10874 14.9927 7.42747 15.792 7.47268C16.5913 7.51789 17.3818 7.28684 18.031 6.81828C18.6802 6.34972 19.1484 5.67217 19.3572 4.89929C19.5661 4.1264 19.5027 3.30522 19.1779 2.5735C18.853 1.84178 18.2864 1.24404 17.5731 0.88056C16.8597 0.517083 16.0431 0.409982 15.2602 0.577226C14.4772 0.744469 13.7756 1.17588 13.2731 1.79909C12.7705 2.42229 12.4976 3.19937 12.5 3.99996C12.504 4.28796 12.543 4.57497 12.617 4.85296L6.93304 8.09997C6.60341 7.59003 6.1468 7.17461 5.60805 6.89454C5.06931 6.61446 4.46697 6.47936 3.86021 6.50251C3.25346 6.52566 2.66316 6.70627 2.14732 7.02658C1.63148 7.34689 1.20785 7.79589 0.918041 8.32946C0.628232 8.86303 0.48222 9.46282 0.494351 10.0699C0.506482 10.677 0.676338 11.2704 0.98723 11.792C1.29812 12.3136 1.73936 12.7453 2.26758 13.0447C2.7958 13.3442 3.39284 13.5011 4.00004 13.5Z" fill="#FFC85E"></path>
  </symbol>
  <symbol xmlns="http://www.w3.org/2000/svg" viewBox="0 0 8 15" id="arrow">
    <path d="M0 12.8571L5 7.5L0 2.14286L1 0L8 7.5L1 15L0 12.8571Z" ></path>
  </symbol>
  <symbol fill="none" xmlns="http://www.w3.org/2000/svg" viewBox="0 0 39 39" id="whatsapp">
    <rect width="39" height="39" rx="19.5" fill="#00E676"></rect>
    <path d="M27.6784 11.3568C25.5476 9.18112 22.6022 8 19.594 8C13.2017 8 8.06271 13.1594 8.12533 19.4378C8.12533 21.427 8.68936 23.3541 9.62947 25.0946L8 31L14.079 29.4459C15.7711 30.3784 17.6511 30.8136 19.5314 30.8136C25.861 30.8136 31 25.654 31 19.3758C31 16.3298 29.8092 13.4703 27.6785 11.3568H27.6784ZM19.594 28.8866C17.9019 28.8866 16.2098 28.4515 14.7684 27.5812L14.3924 27.3947L10.7575 28.3271L11.6976 24.7839L11.4469 24.4109C8.68936 19.9974 10.0055 14.154 14.5177 11.4189C19.0299 8.68377 24.8583 9.98921 27.6158 14.4649C30.3733 18.9405 29.0572 24.7216 24.545 27.4568C23.1035 28.3892 21.3488 28.8865 19.594 28.8865V28.8866ZM25.1089 21.9866L24.4196 21.6758C24.4196 21.6758 23.4169 21.2407 22.7902 20.9298C22.7275 20.9298 22.6649 20.8676 22.6022 20.8676C22.4141 20.8676 22.2888 20.9298 22.1635 20.992C22.1635 20.992 22.1008 21.0541 21.2234 22.0488C21.1607 22.1731 21.0354 22.2353 20.9101 22.2353H20.8474C20.7847 22.2353 20.6594 22.1731 20.5967 22.111L20.2833 21.9866C19.594 21.6758 18.9673 21.3028 18.4659 20.8055C18.3406 20.6812 18.1525 20.5569 18.0272 20.4326C17.5885 19.9974 17.1498 19.5001 16.8365 18.9406L16.7738 18.8163C16.7112 18.7541 16.7112 18.692 16.6485 18.5677C16.6485 18.4434 16.6485 18.3191 16.7112 18.2569C16.7112 18.2569 16.9619 17.946 17.1498 17.7596C17.2752 17.6352 17.3379 17.4488 17.4632 17.3245C17.5885 17.1379 17.6512 16.8893 17.5885 16.7028C17.5259 16.392 16.7738 14.7136 16.5859 14.3406C16.4605 14.1541 16.3352 14.092 16.1472 14.0298H15.4578C15.3324 14.0298 15.2072 14.092 15.0817 14.092L15.019 14.1541C14.8937 14.2163 14.7684 14.3406 14.643 14.4028C14.5177 14.5272 14.455 14.6514 14.3297 14.7758C13.891 15.3353 13.6403 16.019 13.6403 16.7028C13.6403 17.2001 13.7656 17.6974 13.9537 18.1325L14.0164 18.3191C14.5804 19.5001 15.3324 20.5569 16.3352 21.4893L16.5859 21.7379C16.7738 21.9244 16.9619 22.0488 17.0872 22.2352C18.4033 23.3542 19.9073 24.1623 21.5994 24.5974C21.7875 24.6595 22.0381 24.6595 22.2262 24.7217H22.8528C23.1662 24.7217 23.5422 24.5974 23.7929 24.4731C23.9809 24.3488 24.1062 24.3488 24.2315 24.2245L24.357 24.1001C24.4823 23.9758 24.6076 23.9136 24.733 23.7893C24.8583 23.665 24.9836 23.5407 25.0463 23.4163C25.1717 23.1677 25.2343 22.8568 25.297 22.5461V22.111C25.297 22.111 25.2343 22.0488 25.1089 21.9866Z" fill="white"></path>
  </symbol>
  <symbol fill="none" xmlns="http://www.w3.org/2000/svg" viewBox="0 0 39 39" id="telegram">
    <g clip-path="url(#clip0_4001_387)">
      <path d="M19.5 0C8.73036 0 0 8.73036 0 19.5C0 30.2696 8.73036 39 19.5 39C30.2696 39 39 30.2696 39 19.5C39 8.73036 30.2696 0 19.5 0Z" fill="#40B3E0"></path>
      <path d="M28.9884 11.2169L25.5054 28.7774C25.5054 28.7774 25.0183 29.9953 23.6788 29.4107L15.6414 23.2487L12.7188 21.8362L7.79905 20.1799C7.79905 20.1799 7.04404 19.9121 6.97091 19.3275C6.89779 18.743 7.82343 18.4264 7.82343 18.4264L27.3807 10.7544C27.3807 10.7544 28.9882 10.0481 28.9882 11.2172" fill="white"></path>
      <path d="M15.0237 28.5799C15.0237 28.5799 14.7891 28.558 14.4966 27.6324C14.2046 26.7069 12.7188 21.8358 12.7188 21.8358L24.5312 14.3344C24.5312 14.3344 25.2132 13.9204 25.1888 14.3344C25.1888 14.3344 25.3106 14.4075 24.9451 14.7485C24.5799 15.0896 15.6658 23.1024 15.6658 23.1024" fill="#D2E5F1"></path>
      <path d="M18.7228 25.6112L15.5438 28.5097C15.5438 28.5097 15.2952 28.6983 15.0234 28.5801L15.6322 23.1963" fill="#B5CFE4"></path>
    </g>
    <defs>
      <clipPath id="clip0_4001_387">
        <rect width="39" height="39" fill="white"></rect>
      </clipPath>
    </defs>
  </symbol>
  <symbol fill="none" xmlns="http://www.w3.org/2000/svg" viewBox="0 0 20 15" id="box">
    <path d="M13.3035 7.99994C12.7753 7.99994 12.2785 7.71869 12.0097 7.26869L10.0003 3.93743L7.9941 7.26869C7.72222 7.72181 7.22535 8.00306 6.69722 8.00306C6.5566 8.00306 6.41597 7.98431 6.2816 7.94369L2.00035 6.71868V12.2812C2.00035 12.7406 2.31285 13.1406 2.7566 13.2499L9.51285 14.9406C9.8316 15.0187 10.166 15.0187 10.4816 14.9406L17.2441 13.2499C17.6878 13.1374 18.0003 12.7374 18.0003 12.2812V6.71868L13.7191 7.94056C13.5847 7.98119 13.4441 7.99994 13.3035 7.99994ZM19.9472 4.49369L18.3378 1.28118C18.241 1.08743 18.0316 0.974934 17.816 1.00306L10.0003 1.99993L12.866 6.75306C12.9847 6.94993 13.2222 7.04368 13.4441 6.98118L19.6285 5.21556C19.9378 5.12493 20.0878 4.78118 19.9472 4.49369ZM1.66285 1.28118L0.0534711 4.49369C-0.0902789 4.78118 0.0628461 5.12493 0.369096 5.21243L6.55347 6.97806C6.77535 7.04056 7.01285 6.94681 7.1316 6.74993L10.0003 1.99993L2.1816 1.00306C1.96597 0.978059 1.75972 1.08743 1.66285 1.28118Z" fill="#3F4E65"></path>
  </symbol>
  <symbol fill="none" xmlns="http://www.w3.org/2000/svg" viewBox="0 0 9 15" id="bottle">
    <path d="M8.1 14.0625C8.05312 14.3164 7.95234 14.5361 7.79766 14.7217C7.64297 14.9072 7.44375 15 7.2 15H1.8C1.55625 15 1.35938 14.9097 1.20938 14.729C1.05937 14.5483 0.95625 14.3262 0.9 14.0625L0 8.4375V6.5625C0 6.2793 0.0914062 6.04492 0.274219 5.85938C0.457031 5.67383 0.726562 5.49072 1.08281 5.31006C1.43906 5.12939 1.65937 5.00977 1.74375 4.95117C2.11875 4.67773 2.45625 4.35547 2.75625 3.98438C3.05625 3.61328 3.27656 3.22266 3.41719 2.8125H3.15C3.02812 2.8125 2.92266 2.76611 2.83359 2.67334C2.74453 2.58057 2.7 2.4707 2.7 2.34375V0.46875C2.7 0.341797 2.74453 0.231934 2.83359 0.13916C2.92266 0.0463867 3.02812 0 3.15 0H5.85C5.97187 0 6.07734 0.0463867 6.16641 0.13916C6.25547 0.231934 6.3 0.341797 6.3 0.46875V2.34375C6.3 2.4707 6.25547 2.58057 6.16641 2.67334C6.07734 2.76611 5.97187 2.8125 5.85 2.8125H5.58281C5.86406 3.60352 6.38437 4.28711 7.14375 4.86328C7.24687 4.95117 7.48125 5.08789 7.84687 5.27344C8.2125 5.45898 8.49609 5.64941 8.69766 5.84473C8.89922 6.04004 9 6.2793 9 6.5625V8.4375L8.1 14.0625Z" fill="#3F4E65"></path>
  </symbol>
  <symbol xmlns="http://www.w3.org/2000/svg" viewBox="0 0 41 29" id="basket">
    <path d="M40.6514 5.78617C40.3916 5.42327 40.043 5.24182 39.6055 5.24182H11.7559L11 3.27403C10.8086 2.62887 10.5488 2.07779 10.2207 1.6208C9.89258 1.16381 9.54395 0.841232 9.1748 0.65306C8.80566 0.464888 8.48438 0.3372 8.21094 0.269996C7.9375 0.202792 7.66406 0.169189 7.39062 0.169189H1.77148C1.41602 0.169189 1.11523 0.290157 0.869141 0.532093C0.623047 0.774028 0.5 1.08317 0.5 1.45951C0.5 1.67457 0.554688 1.8829 0.664062 2.08451C0.773438 2.28612 0.930664 2.44069 1.13574 2.54822C1.34082 2.65575 1.55273 2.70951 1.77148 2.70951H7.39062C7.5 2.70951 7.60254 2.72295 7.69824 2.74983C7.79395 2.77672 7.92383 2.89096 8.08789 3.09258C8.25195 3.29419 8.38867 3.59661 8.49805 3.99983L14.3809 20.1531C14.4355 20.3144 14.5244 20.4689 14.6475 20.6168C14.7705 20.7646 14.9141 20.8789 15.0781 20.9595C15.2422 21.0402 15.4199 21.0805 15.6113 21.0805H33.3301C33.6035 21.0805 33.8564 20.9998 34.0889 20.8385C34.3213 20.6773 34.4785 20.4756 34.5605 20.2337L40.8359 6.97569C40.9727 6.54558 40.9111 6.14908 40.6514 5.78617ZM32.4277 18.4998H16.6367L12.4531 7.82246H37.7188L32.4277 18.4998ZM30.0625 22.4798C29.1602 22.4798 28.3877 22.7957 27.7451 23.4274C27.1025 24.0591 26.7812 24.8186 26.7812 25.7057C26.7812 26.5928 27.1025 27.3522 27.7451 27.9839C28.3877 28.6156 29.1602 28.9315 30.0625 28.9315C30.9648 28.9315 31.7373 28.6156 32.3799 27.9839C33.0225 27.3522 33.3438 26.5928 33.3438 25.7057C33.3438 24.8186 33.0225 24.0591 32.3799 23.4274C31.7373 22.7957 30.9648 22.4798 30.0625 22.4798ZM18.25 22.4798C17.6484 22.4798 17.0947 22.6277 16.5889 22.9234C16.083 23.2191 15.6865 23.6089 15.3994 24.0927C15.1123 24.5766 14.9688 25.1143 14.9688 25.7057C14.9688 26.5928 15.29 27.3522 15.9326 27.9839C16.5752 28.6156 17.3477 28.9315 18.25 28.9315C19.1523 28.9315 19.9248 28.6156 20.5674 27.9839C21.21 27.3522 21.5312 26.5928 21.5312 25.7057C21.5312 25.4906 21.5107 25.2755 21.4697 25.0605C21.4287 24.8454 21.3672 24.6438 21.2852 24.4557C21.2031 24.2675 21.1006 24.086 20.9775 23.9113C20.8545 23.7366 20.7178 23.5753 20.5674 23.4274C20.417 23.2796 20.2529 23.1452 20.0752 23.0242C19.8975 22.9032 19.7129 22.8024 19.5215 22.7218C19.3301 22.6411 19.125 22.5806 18.9062 22.5403C18.6875 22.5 18.4688 22.4798 18.25 22.4798Z" ></path>
  </symbol>
  <symbol xmlns="http://www.w3.org/2000/svg" viewBox="0 0 12 13" id="download">
    <path d="M10.958 4.375H8.12467V0.125H3.87467V4.375H1.04134L5.99967 10.0417L10.958 4.375ZM0.333008 11.4583H11.6663V12.875H0.333008V11.4583Z" ></path>
  </symbol>
  <symbol fill="none" xmlns="http://www.w3.org/2000/svg" viewBox="0 0 19 19" id="search">
    <path d="M16.5294 16.5294L13.0989 13.0928L16.5294 16.5294ZM15 8.5C15 10.2239 14.3152 11.8772 13.0962 13.0962C11.8772 14.3152 10.2239 15 8.5 15C6.77609 15 5.12279 14.3152 3.90381 13.0962C2.68482 11.8772 2 10.2239 2 8.5C2 6.77609 2.68482 5.12279 3.90381 3.90381C5.12279 2.68482 6.77609 2 8.5 2C10.2239 2 11.8772 2.68482 13.0962 3.90381C14.3152 5.12279 15 6.77609 15 8.5V8.5Z"  stroke-width="1.3" stroke-linecap="round"></path>
  </symbol>
  <symbol xmlns="http://www.w3.org/2000/svg" viewBox="0 0 15 15" id="catalog">
    <path d="M0.5 2C0.5 1.17157 1.17157 0.5 2 0.5H6C6.27614 0.5 6.5 0.723858 6.5 1V6C6.5 6.27614 6.27614 6.5 6 6.5H1C0.723858 6.5 0.5 6.27614 0.5 6V2Z" ></path>
    <path d="M8.5 1C8.5 0.723858 8.72386 0.5 9 0.5H13C13.8284 0.5 14.5 1.17157 14.5 2V6C14.5 6.27614 14.2761 6.5 14 6.5H9C8.72386 6.5 8.5 6.27614 8.5 6V1Z" ></path>
    <path d="M8.5 9C8.5 8.72386 8.72386 8.5 9 8.5H14C14.2761 8.5 14.5 8.72386 14.5 9V13C14.5 13.8284 13.8284 14.5 13 14.5H9C8.72386 14.5 8.5 14.2761 8.5 14V9Z" ></path>
    <path d="M0.5 9C0.5 8.72386 0.723858 8.5 1 8.5H6C6.27614 8.5 6.5 8.72386 6.5 9V14C6.5 14.2761 6.27614 14.5 6 14.5H2C1.17157 14.5 0.5 13.8284 0.5 13V9Z" ></path>
  </symbol>
  <symbol xmlns="http://www.w3.org/2000/svg" viewBox="0 0 156 66" id="logo">
    <g clip-path="url(#clip0_4001_674)">
      <path d="M48.513 24.6743C48.4887 21.1069 47.3262 17.6401 45.1945 14.7779C45.166 14.7184 45.1263 14.665 45.0775 14.6205C43.6528 12.7179 41.9212 11.0654 39.9534 9.73077C39.902 9.68971 39.8478 9.65214 39.7913 9.61832C36.7412 7.58887 33.3044 6.21058 29.6963 5.56979H29.6513C29.6277 5.56304 29.6028 5.56304 29.5792 5.56979C28.6787 5.39885 27.7106 5.27739 26.756 5.19642C26.684 3.20815 26.2742 1.98009 25.7925 1.21537C25.6452 0.932775 25.4413 0.6835 25.1934 0.483059C24.9455 0.282618 24.659 0.135304 24.3516 0.050293H24.23H24.149C23.8411 0.135495 23.5541 0.282842 23.3055 0.48323C23.0569 0.683619 22.852 0.932792 22.7036 1.21537C22.2173 1.98009 21.8031 3.21264 21.74 5.20092C12.379 5.99263 4.58482 11.1073 1.47797 18.0258C1.46026 18.0621 1.44521 18.0997 1.43294 18.1382C0.514142 20.2046 0.0386646 22.4403 0.0371094 24.7013C0.0371094 30.0589 2.64416 35.0476 7.38549 38.7677C7.06053 40.8612 7.26326 43.0025 7.97534 44.998C6.85867 48.5966 5.86808 53.1895 7.7502 57.0941C7.75102 57.106 7.75102 57.1181 7.7502 57.13C9.9205 61.5834 14.171 62.789 18.282 63.9496C20.2389 64.4245 22.1438 65.092 23.9689 65.9423L24.0319 65.9693H24.0724C24.1144 65.9737 24.1566 65.9737 24.1985 65.9693H24.2661C24.3478 65.9702 24.4284 65.9501 24.5002 65.9109C26.3257 65.051 28.2322 64.3744 30.1916 63.8911C32.533 63.2298 34.9239 62.5416 36.9456 61.2685L37.0042 61.228C38.6115 60.2207 39.9008 58.7798 40.7234 57.0716C42.628 53.1625 41.6239 48.6281 40.5703 45.1149C40.5628 45.0903 40.5505 45.0674 40.5343 45.0474C41.6059 42.4474 41.3087 39.6494 41.1691 38.7137C45.906 35.0116 48.513 30.0319 48.513 24.6743ZM47.4999 24.6743C47.4989 26.1297 47.2912 27.5777 46.883 28.9748C46.1632 27.5083 45.2368 26.1526 44.1319 24.9487C42.0832 22.6996 38.4585 19.9241 32.578 18.8355C36.4358 17.3638 40.4252 16.2627 44.4921 15.5472C46.4222 18.2021 47.4738 21.3931 47.4999 24.6743ZM43.8212 14.643C38.5354 15.5937 33.3914 17.2094 28.5121 19.4517C28.1969 16.9012 27.0622 14.8949 25.5583 14.1617C25.6079 13.9817 25.6484 13.8108 25.6889 13.6398C30.1626 12.1384 34.7849 11.122 39.4761 10.608C41.1117 11.7366 42.5752 13.0957 43.8212 14.643ZM37.9272 47.1122L37.657 47.3506C36.6925 48.1046 35.5578 48.6111 34.3521 48.8261H34.2935H34.199H34.172C31.655 49.2759 28.395 48.9385 24.4281 47.7734H24.3741H24.176H24.1355C22.3286 48.3251 20.4746 48.7091 18.5972 48.9205H18.5161C14.9995 49.2624 12.3519 48.6416 10.6094 47.0492C8.58771 45.2859 8.20948 42.5194 8.20948 40.648C9.06562 42.2584 10.3433 43.6064 11.9062 44.5481C14.4952 46.0776 17.7597 46.3475 21.6185 45.4073C21.8679 45.886 22.2443 46.2869 22.7065 46.5661C23.1687 46.8454 23.6989 46.9923 24.239 46.9907C24.7786 46.9925 25.3083 46.8456 25.7698 46.5663C26.2313 46.2869 26.6068 45.8859 26.8551 45.4073C30.7139 46.3654 33.9828 46.0776 36.5674 44.5481C38.1324 43.609 39.4107 42.2604 40.2641 40.648C40.3001 42.5194 39.9219 45.2858 37.9272 47.1122ZM35.6759 60.8907C33.9293 61.7531 32.0932 62.4214 30.2006 62.8834C29.3373 62.0651 28.5958 61.1274 27.9988 60.099C27.0982 58.484 27.5485 56.7072 28.2194 55.0248C28.332 54.7369 28.4671 54.4265 28.6111 54.1026C29.1605 52.8566 29.8179 51.3541 29.5927 49.9641C30.3309 50.0532 31.0735 50.0997 31.8171 50.1036C32.5634 50.1061 33.3087 50.0489 34.0459 49.9327C34.3296 50.7334 33.9243 52.1099 33.5596 53.3469C33.2496 54.2008 33.0631 55.0945 33.0058 56.0009C33.0046 56.9743 33.2486 57.9323 33.7152 58.7868C34.1818 59.6413 34.856 60.3648 35.6759 60.8907ZM24.2706 64.9392C23.5411 64.3994 21.0151 62.3167 20.5288 58.9114C20.0785 55.8165 21.4068 52.4517 24.4417 48.9025C25.7817 49.2857 27.1441 49.5861 28.5211 49.8022C28.8813 50.9448 28.2464 52.3888 27.6836 53.6708C27.535 54.0127 27.3954 54.3366 27.2784 54.6379C26.5354 56.5498 25.9996 58.592 27.1162 60.5758C27.6622 61.5216 28.3231 62.3965 29.0839 63.1803C27.4282 63.6203 25.8156 64.209 24.2661 64.9392H24.2706ZM36.0631 43.6934C33.6406 45.1239 30.4978 45.3398 26.7425 44.3412C26.6764 44.3193 26.6064 44.3114 26.537 44.318C26.4676 44.3245 26.4003 44.3453 26.3394 44.3791C26.2785 44.413 26.2252 44.459 26.183 44.5144C26.1408 44.5698 26.1105 44.6334 26.0941 44.7011C25.9612 45.0788 25.7136 45.4057 25.386 45.6363C25.0583 45.8669 24.6668 45.9897 24.2661 45.9876C23.862 45.9907 23.4673 45.8663 23.1382 45.632C22.8091 45.3977 22.5624 45.0656 22.4335 44.6831C22.4163 44.618 22.3859 44.5573 22.344 44.5046C22.3022 44.452 22.2498 44.4086 22.1903 44.3772C22.1259 44.3427 22.0552 44.3217 21.9824 44.3155C21.9096 44.3093 21.8363 44.318 21.7671 44.3412C18.0208 45.3353 14.8915 45.1194 12.4645 43.6934C10.5641 42.5211 9.14347 40.7112 8.45713 38.5878C8.86687 37.7601 10.8751 33.9994 15.3868 29.627C15.8685 29.3481 21.9922 26.0014 33.1543 29.654C37.6345 34.0039 39.6787 37.8051 40.0795 38.5923C39.3842 40.7102 37.9594 42.513 36.0586 43.6799L36.0631 43.6934ZM20.9521 20.8957C20.9521 18.3181 21.8931 16.051 23.1719 15.2188C23.311 15.1202 23.4624 15.04 23.6222 14.9804C23.7811 14.9205 23.948 14.8841 24.1175 14.8724H24.3066C24.4787 14.8764 24.649 14.9083 24.8109 14.9669C24.9696 15.0194 25.1209 15.092 25.2611 15.1828C26.4003 15.889 27.2828 17.7289 27.4855 19.9196C27.5205 20.2438 27.5371 20.5697 27.535 20.8957C27.535 20.9497 27.535 21.0082 27.535 21.0667C27.5273 21.9026 27.4122 22.7341 27.1928 23.5408C27.097 23.8757 26.9812 24.2047 26.8461 24.5259C26.2382 25.9699 25.2882 26.919 24.2345 26.919C23.1809 26.919 22.2308 25.9744 21.623 24.5304C21.4775 24.1953 21.3586 23.8494 21.2673 23.4958C21.0459 22.6471 20.9399 21.7726 20.9521 20.8957ZM22.0192 26.9415C20.4959 27.0102 18.9853 27.2516 17.5165 27.6613C18.4846 26.8381 19.5698 25.9879 20.7675 25.1332C21.0689 25.8083 21.4933 26.4215 22.0192 26.9415ZM26.3373 27.0855C26.9346 26.5408 27.4089 25.8753 27.7286 25.1332C29.0794 26.1093 30.3312 27.1035 31.4478 28.0796C29.7721 27.6188 28.0636 27.2865 26.3373 27.0855ZM25.9185 12.4883C26.3134 10.6926 26.5753 8.87035 26.702 7.03625C27.6025 6.86082 28.5256 6.69437 29.4757 6.54143C32.5196 7.09115 35.4411 8.17879 38.1028 9.75327C33.9646 10.2817 29.8853 11.1974 25.9185 12.4883ZM23.4826 1.80465C23.6487 1.47941 23.9072 1.21029 24.2255 1.03093C24.5428 1.21175 24.8008 1.48048 24.9685 1.80465C25.3017 2.36695 25.6439 3.36559 25.7159 5.08846C25.7159 5.40335 25.7159 5.74073 25.7159 6.10509V6.20855C25.7159 6.53694 25.6889 6.87881 25.6664 7.25667C25.5032 9.14738 25.2022 11.0237 24.7658 12.8706C24.6938 13.199 24.6218 13.5319 24.5407 13.8783C24.4365 13.862 24.331 13.8545 24.2255 13.8558C24.1021 13.8579 23.9788 13.8669 23.8563 13.8828C23.8068 13.6713 23.7528 13.4644 23.7077 13.253C23.2935 11.4973 22.9927 9.71673 22.8072 7.92243C22.7712 7.56256 22.7441 7.22069 22.7306 6.8968C22.7171 6.57292 22.7036 6.357 22.6991 6.10509C22.6991 5.74073 22.6991 5.40335 22.6991 5.09296C22.8072 3.36559 23.1539 2.36695 23.4826 1.80465ZM21.7175 6.17706C21.7175 6.48745 21.74 6.81583 21.7626 7.15321C12.5231 9.66329 6.80464 13.37 3.89591 15.7001C7.46203 10.5315 14.0315 6.85182 21.7175 6.17706ZM2.32447 18.5206C2.68018 18.1382 4.67937 16.069 8.62823 13.7118C12.7669 11.2886 17.2135 9.43357 21.8481 8.19683C22.0543 10.0254 22.37 11.84 22.7937 13.6309C17.7955 15.5443 13.1809 18.3369 9.16855 21.8764C5.11614 25.547 3.0539 28.9658 2.22091 30.6122C1.4126 28.6967 1.0052 26.6362 1.02379 24.5575C1.04237 22.4788 1.48655 20.4259 2.32897 18.5251L2.32447 18.5206ZM2.77474 31.7997C3.40511 30.3783 7.92131 21.1431 21.722 15.1558C20.6369 16.4243 19.9435 18.4981 19.9435 20.8912C19.9328 21.9782 20.0846 23.0608 20.3937 24.103C12.379 29.744 8.72729 35.8483 7.72319 37.7421C5.67813 36.1253 3.99152 34.1018 2.77024 31.7997H2.77474ZM8.62823 46.2935C8.98696 46.8681 9.41995 47.3929 9.91599 47.8544C10.7584 48.6155 11.7551 49.1863 12.8382 49.5278C11.7783 49.863 10.8041 50.4248 9.98354 51.1742C8.98106 52.1385 8.28431 53.3758 7.97984 54.7324C7.30894 51.9524 7.86277 48.9205 8.60572 46.2935H8.62823ZM8.72729 56.7702C9.01546 49.9686 15.3868 50.0721 15.6659 50.0811C15.7135 50.0828 15.7609 50.0751 15.8055 50.0586C16.1432 50.0586 16.4899 50.0856 16.8411 50.0586C14.7519 51.705 13.4866 53.6123 13.0814 55.749C12.7527 57.6744 13.0443 59.6544 13.9144 61.4035C11.7531 60.4813 9.89799 59.1453 8.70478 56.7702H8.72729ZM15.4138 61.9928C15.0401 61.4215 13.5272 58.8844 14.0945 55.947C14.5448 53.6663 16.1072 51.6555 18.7683 49.9686C20.1541 49.8197 21.5268 49.5671 22.8747 49.2129C20.2136 52.6452 19.0835 55.9605 19.5337 59.0553C19.8091 60.8538 20.5792 62.5404 21.7581 63.9271C20.6999 63.5582 19.6193 63.2523 18.5567 62.9509C17.494 62.6495 16.4089 62.3436 15.4138 61.9928ZM36.68 60.2699C35.8833 59.866 35.2141 59.2495 34.7468 58.4888C34.2794 57.7282 34.0322 56.853 34.0324 55.9605C34.0975 55.1602 34.2686 54.3721 34.5412 53.6168C34.9554 52.2313 35.3742 50.8053 35.0635 49.7167C35.8995 49.5136 36.7007 49.1877 37.4409 48.7496C37.4409 52.6317 39.5797 54.3006 40.4712 54.8314C40.3192 55.4659 40.1003 56.0827 39.8183 56.6712C39.1086 58.132 38.0183 59.3751 36.6619 60.2699H36.68ZM40.6828 53.7518C39.8048 53.1085 38.2559 51.4666 38.49 47.9804L38.6341 47.8544C39.1135 47.4149 39.5328 46.9143 39.8814 46.3654C40.5027 48.6416 41.0115 51.2507 40.6648 53.7518H40.6828ZM40.7954 37.7556C39.8093 35.8933 36.1711 29.8115 28.1158 24.148C28.4415 23.0949 28.6025 21.9979 28.5931 20.8957C28.5931 20.7878 28.5931 20.6753 28.5931 20.5718C29.3 20.23 30.0295 19.8971 30.7814 19.5867C37.3419 20.3694 41.2457 23.2799 43.3664 25.5965C44.6716 26.992 45.7026 28.6202 46.4057 30.3963C45.1941 33.292 43.2556 35.8267 40.7774 37.7556H40.7954Z" ></path>
      <path d="M17.5294 35.9868C16.03 35.9868 14.6882 36.6436 14.1839 37.6242C14.1239 37.7437 14.1134 37.8819 14.1547 38.0091C14.196 38.1362 14.2858 38.242 14.4046 38.3035C14.476 38.3387 14.5545 38.3572 14.6342 38.3574C14.7273 38.3577 14.8186 38.3322 14.8981 38.2837C14.9776 38.2353 15.0421 38.1658 15.0845 38.083C15.4131 37.4443 16.4353 36.9944 17.5294 36.9944C18.6236 36.9944 19.6457 37.4443 19.9789 38.083C20.0089 38.1422 20.0504 38.1949 20.1008 38.238C20.1513 38.2812 20.2098 38.3139 20.273 38.3344C20.3362 38.3549 20.4028 38.3627 20.469 38.3574C20.5352 38.3521 20.5997 38.3338 20.6588 38.3035C20.7787 38.242 20.8693 38.1354 20.9107 38.0072C20.9521 37.879 20.9408 37.7396 20.8794 37.6197C20.3661 36.6436 19.0153 35.9868 17.5294 35.9868Z" ></path>
      <path d="M30.9788 35.9868C29.4794 35.9868 28.1331 36.6436 27.6333 37.6242C27.6024 37.6831 27.5836 37.7476 27.578 37.8139C27.5723 37.8802 27.58 37.947 27.6006 38.0102C27.6211 38.0735 27.6541 38.132 27.6976 38.1824C27.7412 38.2328 27.7943 38.2739 27.854 38.3035C27.9254 38.3387 28.004 38.3572 28.0836 38.3574C28.1767 38.3577 28.268 38.3322 28.3475 38.2837C28.427 38.2353 28.4915 38.1658 28.5339 38.083C28.8626 37.4443 29.8847 36.9944 30.9788 36.9944C32.073 36.9944 33.0951 37.4443 33.4283 38.083C33.4583 38.1422 33.4998 38.1949 33.5503 38.238C33.6007 38.2812 33.6592 38.3139 33.7224 38.3344C33.7856 38.3549 33.8522 38.3627 33.9184 38.3574C33.9846 38.3521 34.0491 38.3338 34.1082 38.3035C34.2273 38.2411 34.3171 38.1345 34.3584 38.0066C34.3997 37.8788 34.389 37.7398 34.3288 37.6197C33.82 36.6436 32.4737 35.9868 30.9788 35.9868Z" ></path>
      <path d="M63.8707 29.0774C67.1621 29.0774 70.7282 30.8767 71.3406 35.1097H67.3467C66.7794 33.4993 65.5727 32.7705 63.8707 32.7705C61.4887 32.7705 59.9218 34.5699 59.9218 37.1924C59.9218 39.5316 61.4662 41.5693 63.8707 41.5963C65.5997 41.5963 66.982 40.7327 67.4143 39.0323H71.4081C70.8183 43.5306 67.2567 45.2895 63.8707 45.2895C59.8182 45.312 55.7433 42.5905 55.7208 37.1924C55.6983 31.7944 59.8317 29.0774 63.8707 29.0774Z"></path>
      <path d="M77.7655 44.6959L80.2509 39.5767L74.9062 29.8513V29.2395H79.445L82.4437 35.0874H82.5563L85.2804 29.2395H89.7066V29.8513L82.1466 45.1457H77.7655V44.6959Z" ></path>
      <path d="M94.7054 45.1455H90.7295V44.5562L97.8798 29.0684H99.6133L106.818 44.5427V45.1455H102.842L98.7578 35.8474L94.7054 45.1455Z" ></path>
      <path d="M108.668 32.8875V29.2573H120.47V32.8875H116.588V45.1456H112.572V32.8875H108.668Z" ></path>
      <path d="M133.5 43.1347H127.236L126.304 45.1455H122.333V44.5562L129.483 29.0684H131.23L138.403 44.5562V45.1455H134.432L133.5 43.1347ZM130.348 35.4875L128.547 39.662H132.18L130.348 35.4875Z" ></path>
      <path d="M156 45.1456H151.844V38.7579H146.941V45.1456H142.789V29.2573H146.941V35.0152H151.844V29.2573H156V45.1456Z" ></path>
    </g>
    <defs>
      <clipPath id="clip0_4001_674">
        <rect width="156" height="66" fill="white"></rect>
      </clipPath>
    </defs>
  </symbol>
  <symbol fill="none" xmlns="http://www.w3.org/2000/svg" viewBox="0 0 18 14" id="message">
    <path d="M3.37533 0.333252H14.6253C15.3171 0.333207 15.9827 0.59788 16.4855 1.07298C16.9884 1.54808 17.2903 2.19758 17.3295 2.88825L17.3337 3.04158V10.9583C17.3337 11.65 17.069 12.3156 16.5939 12.8184C16.1188 13.3213 15.4693 13.6233 14.7787 13.6624L14.6253 13.6666H3.37533C2.68354 13.6666 2.01797 13.402 1.51513 12.9269C1.0123 12.4518 0.710324 11.8023 0.671159 11.1116L0.666992 10.9583V3.04158C0.666947 2.3498 0.931621 1.68423 1.40672 1.18139C1.88182 0.678558 2.53132 0.376584 3.22199 0.337419L3.37533 0.333252H14.6253H3.37533ZM16.0837 4.81075L9.29199 8.38575C9.21531 8.42626 9.13102 8.45037 9.04451 8.45654C8.958 8.46271 8.87115 8.4508 8.78949 8.42159L8.70949 8.38658L1.91699 4.81158V10.9583C1.91701 11.3242 2.05463 11.6768 2.30256 11.9461C2.55048 12.2153 2.89058 12.3815 3.25533 12.4116L3.37533 12.4166H14.6253C14.9915 12.4166 15.3442 12.2788 15.6134 12.0307C15.8827 11.7826 16.0487 11.4423 16.0787 11.0774L16.0837 10.9583V4.81075ZM14.6253 1.58325H3.37533C3.00933 1.58327 2.65673 1.72089 2.3875 1.96882C2.11827 2.21674 1.95211 2.55683 1.92199 2.92159L1.91699 3.04158V3.39908L9.00033 7.12659L16.0837 3.39825V3.04158C16.0836 2.67546 15.9459 2.32274 15.6978 2.0535C15.4497 1.78425 15.1094 1.61817 14.7445 1.58825L14.6253 1.58325Z" fill="#3F4E65"></path>
  </symbol>
  <symbol fill="none" xmlns="http://www.w3.org/2000/svg" viewBox="0 0 16 18" id="location">
    <path d="M8 9.8335C9.38071 9.8335 10.5 8.71421 10.5 7.3335C10.5 5.95278 9.38071 4.8335 8 4.8335C6.61929 4.8335 5.5 5.95278 5.5 7.3335C5.5 8.71421 6.61929 9.8335 8 9.8335Z" stroke="#3F4E65" stroke-width="1.3" stroke-linecap="round" stroke-linejoin="round"></path>
    <path d="M7.99967 0.666748C6.23156 0.666748 4.53587 1.36913 3.28563 2.61937C2.03539 3.86961 1.33301 5.5653 1.33301 7.33342C1.33301 8.91008 1.66801 9.94175 2.58301 11.0834L7.99967 17.3334L13.4163 11.0834C14.3313 9.94175 14.6663 8.91008 14.6663 7.33342C14.6663 5.5653 13.964 3.86961 12.7137 2.61937C11.4635 1.36913 9.76778 0.666748 7.99967 0.666748V0.666748Z" stroke="#3F4E65" stroke-width="1.3" stroke-linecap="round" stroke-linejoin="round"></path>
  </symbol>
</svg>